<?xml version="1.0" standalone="no"?>
<!DOCTYPE svg PUBLIC "-//W3C//DTD SVG 20010904//EN"
 "http://www.w3.org/TR/2001/REC-SVG-20010904/DTD/svg10.dtd">
<svg version="1.0" xmlns="http://www.w3.org/2000/svg"
 width="109.000000pt" height="123.000000pt" viewBox="0 0 109.000000 123.000000"
 preserveAspectRatio="xMidYMid meet">

<g transform="translate(0.000000,123.000000) scale(0.100000,-0.100000)"
fill="#000000" stroke="none">
<path d="M419 935 c-113 -36 -196 -127 -219 -242 -29 -137 46 -280 179 -341
171 -79 375 18 426 202 53 188 -81 377 -278 391 -39 3 -79 -1 -108 -10z m215
-69 c154 -90 182 -291 56 -416 -126 -127 -328 -98 -413 59 -59 107 -43 226 42
311 60 60 115 81 203 76 50 -2 78 -10 112 -30z"/>
<path d="M330 591 c-35 -10 -35 -31 0 -79 75 -104 241 -119 327 -30 28 29 59
86 50 94 -1 2 -21 -2 -44 -7 -33 -9 -56 -7 -122 10 -80 21 -163 26 -211 12z"/>
</g>
</svg>
